<svg version="1.0" xmlns="http://www.w3.org/2000/svg"
     width="512.000000pt" height="512.000000pt" viewBox="0 0 512.000000 512.000000"
     preserveAspectRatio="xMidYMid meet">
    <g transform="translate(0.000000,512.000000) scale(0.100000,-0.100000)"
       fill="#ffffff" stroke="none">
        <path d="M568 4604 c-36 -19 -58 -63 -58 -116 l-1 -43 377 -371 377 -371 -124
-73 c-326 -193 -642 -437 -930 -718 -180 -175 -204 -216 -204 -352 0 -136 24
-177 204 -352 358 -349 764 -644 1163 -844 605 -303 1179 -380 1755 -235 139
35 324 99 461 159 l93 41 327 -322 c576 -566 533 -527 581 -527 83 0 131 48
131 132 l1 43 -403 397 c-317 312 -400 400 -388 407 426 261 677 452 981 749
180 175 204 216 204 352 0 136 -24 177 -204 352 -485 473 -1050 839 -1566
1015 -449 153 -907 176 -1335 68 -144 -37 -271 -78 -397 -130 l-106 -44 -46
39 c-25 21 -113 107 -196 190 -82 83 -248 246 -367 361 -215 207 -217 209
-260 209 -24 -1 -55 -7 -70 -16z m2146 -848 c135 -7 321 -45 485 -98 463 -150
914 -426 1385 -848 166 -149 236 -223 236 -250 0 -27 -70 -101 -236 -250 -271
-243 -531 -434 -802 -589 l-92 -53 -533 524 c-292 288 -731 719 -974 958 -244
239 -443 438 -443 442 0 14 308 108 438 133 120 24 341 45 402 39 14 -2 74 -5
134 -8z m-1030 -464 l168 -169 -41 -61 c-51 -75 -94 -168 -123 -269 -19 -66
-23 -102 -23 -233 0 -131 4 -167 23 -233 63 -220 189 -393 373 -516 299 -201
696 -202 991 -5 l81 54 66 -59 c36 -33 108 -102 159 -154 l93 -94 -58 -22
c-207 -82 -388 -131 -570 -157 -122 -17 -380 -19 -495 -5 -457 59 -946 280
-1433 646 -284 213 -595 498 -595 545 0 47 312 332 595 545 251 189 572 383
604 365 9 -5 92 -85 185 -178z m1184 -1249 c-94 -60 -167 -78 -308 -78 -143 0
-193 13 -304 77 -135 79 -236 211 -276 361 -41 149 -15 341 60 460 l30 48 425
-418 425 -418 -52 -32z"/>
    </g>
</svg>
