<svg xmlns="http://www.w3.org/2000/svg" aria-hidden="true"
     style="position: absolute; width: 0; height: 0; overflow: hidden;" version="1.1">
    <defs>
        <symbol id="full" viewBox="0 0 376 178">
            <g class="signet" style="fill: currentColor">
                <path class="cls-2"
                      d="M128,56.1244,89,33.6077a12,12,0,0,0-12,0L38,56.1243a12.0339,12.0339,0,0,0-6,10.3924V111.55a12.0333,12.0333,0,0,0,6,10.3923L77,144.459a12,12,0,0,0,12,0l39-22.5167a12.0333,12.0333,0,0,0,6-10.3923V66.5167A12.0336,12.0336,0,0,0,128,56.1244ZM126,111.55a4,4,0,0,1-2,3.4641L85,137.5308a4,4,0,0,1-4,0L42,115.0141a4,4,0,0,1-2-3.4641V66.5167a4,4,0,0,1,2-3.4641L81,40.5359a4,4,0,0,1,4,0l39,22.5167a4,4,0,0,1,2,3.4641Z"/>
                <path class="cls-2"
                      d="M106.0216,102.0713h-2.866a3.9993,3.9993,0,0,0-1.9246.4935L83.95,112.05,64,100.5315V77.554L83.95,66.0354,101.239,75.49a4.0007,4.0007,0,0,0,1.9192.4905h2.8633a2,2,0,0,0,2-2V71.2691a2,2,0,0,0-1.04-1.7547L87.793,59.0188a8.0391,8.0391,0,0,0-7.8428.09L60,70.6262A8.0245,8.0245,0,0,0,56,77.5549v22.976a8,8,0,0,0,4,6.9283l19.95,11.5186a8.0429,8.0429,0,0,0,7.8433.0879l19.19-10.5312a2,2,0,0,0,1.0377-1.7533v-2.71A2,2,0,0,0,106.0216,102.0713Z"/>
            </g>
            <g class="text" style="fill: currentColor">
                <path class="cls-2"
                      d="M200.7446,65.4285a15.0166,15.0166,0,0,0-15,14.9995V97.7054a15,15,0,0,0,30,0V80.428A15.0166,15.0166,0,0,0,200.7446,65.4285Zm7,32.2769a7,7,0,0,1-14,0V80.428a7,7,0,0,1,14,0Z"/>
                <path class="cls-2"
                      d="M164.0789,73.4878a7.01,7.01,0,0,1,7.868,6.0752.9894.9894,0,0,0,.9843.865h6.0305a1.0108,1.0108,0,0,0,.9987-1.0971,15.0182,15.0182,0,0,0-15.7163-13.8837A15.2881,15.2881,0,0,0,150,80.8635V97.27a15.2881,15.2881,0,0,0,14.2441,15.4163A15.0183,15.0183,0,0,0,179.96,98.8025a1.0107,1.0107,0,0,0-.9987-1.0971h-6.0305a.9894.9894,0,0,0-.9843.865,7.01,7.01,0,0,1-7.868,6.0757A7.1643,7.1643,0,0,1,158,97.4612V80.6724A7.1639,7.1639,0,0,1,164.0789,73.4878Z"/>
                <path class="cls-2"
                      d="M246.9221,92.9944a12.1584,12.1584,0,0,0,7.1843-11.0771V78.2161A12.1494,12.1494,0,0,0,241.957,66.0667H225a1,1,0,0,0-1,1v44a1,1,0,0,0,1,1h6a1,1,0,0,0,1-1v-17h6.6216l7.9153,17.4138a1,1,0,0,0,.91.5862h6.591a1,1,0,0,0,.91-1.4138Zm-.8157-11.0771a4.1538,4.1538,0,0,1-4.1489,4.1494h-9.8511v-12h9.8511a4.1538,4.1538,0,0,1,4.1489,4.1494Z"/>
                <path class="cls-2"
                      d="M289,66.0667H263a1,1,0,0,0-1,1v44a1,1,0,0,0,1,1h26a1,1,0,0,0,1-1v-6a1,1,0,0,0-1-1H270v-12h13a1,1,0,0,0,1-1v-6a1,1,0,0,0-1-1H270v-10h19a1,1,0,0,0,1-1v-6A1,1,0,0,0,289,66.0667Z"/>
                <path class="cls-2"
                      d="M327,66.0667h-6a1,1,0,0,0-1,1V89.7142a7.0066,7.0066,0,1,1-14,0V67.0667a1,1,0,0,0-1-1h-6a1,1,0,0,0-1,1V89.7142a15.0031,15.0031,0,1,0,30,0V67.0667A1,1,0,0,0,327,66.0667Z"/>
                <rect class="cls-2" x="336" y="66.0667" width="8" height="38" rx="1"/>
            </g>
        </symbol>
        <symbol id="signet" viewBox="0 0 160 160">
            <g style="fill: currentColor">
                <path class="cls-1"
                      d="M125,47.091,86,24.5743a12,12,0,0,0-12,0L35,47.091a12.0336,12.0336,0,0,0-6,10.3923v45.0334a12.0335,12.0335,0,0,0,6,10.3923l39,22.5166a11.9993,11.9993,0,0,0,12,0l39-22.5166a12.0335,12.0335,0,0,0,6-10.3923V57.4833A12.0336,12.0336,0,0,0,125,47.091Zm-2,55.4257a4,4,0,0,1-2,3.464L82,128.4974a4,4,0,0,1-4,0L39,105.9807a4,4,0,0,1-2-3.464V57.4833a4,4,0,0,1,2-3.4641L78,31.5025a4,4,0,0,1,4,0l39,22.5167a4,4,0,0,1,2,3.4641Z"/>
                <path class="cls-1"
                      d="M103.0216,93.0379h-2.866a4,4,0,0,0-1.9246.4935L80.95,103.0167,61,91.4981V68.5206L80.95,57.002l17.2894,9.455a4,4,0,0,0,1.9192.4905h2.8632a2,2,0,0,0,2-2V62.2357a2,2,0,0,0-1.04-1.7547L84.793,49.9854a8.0391,8.0391,0,0,0-7.8428.09L57,61.5929A8.0243,8.0243,0,0,0,53,68.5216v22.976a8,8,0,0,0,4,6.9283l19.95,11.5185a8.0422,8.0422,0,0,0,7.8433.0879l19.19-10.5311a2,2,0,0,0,1.0378-1.7534v-2.71A2,2,0,0,0,103.0216,93.0379Z"/>
            </g>
        </symbol>
        <symbol id="full_deep" viewBox="0 0 482.000000 112.000000" preserveAspectRatio="xMidYMid meet">
            <g transform="translate(0.000000,112.000000) scale(0.100000,-0.100000)"
               fill="#fff" stroke="none">
                <path d="M469 1002 l-47 -27 144 -84 144 -83 0 -164 0 -165 50 28 50 28 -2
        168 -3 169 -135 79 c-74 43 -139 78 -145 78 -5 0 -31 -12 -56 -27z"/>
                <path d="M233 867 l-142 -82 -1 -64 c0 -49 3 -61 13 -54 6 6 72 45 146 87
        l133 77 139 -81 c77 -44 141 -80 144 -80 3 0 5 26 5 58 l0 57 -144 83 c-78 45
        -145 82 -147 81 -2 0 -68 -38 -146 -82z"/>
                <path d="M1385 838 c-2 -7 -17 -118 -33 -245 l-28 -233 90 0 c102 0 143 17
        170 68 15 30 46 234 46 308 0 52 -28 90 -78 104 -53 14 -162 13 -167 -2z m140
        -82 c17 -12 18 -20 5 -137 -15 -149 -27 -179 -73 -179 l-33 0 18 153 c11 83
        21 158 23 165 6 16 36 15 60 -2z"/>
                <path d="M3176 828 c-13 -51 -9 -58 39 -58 30 0 45 -4 45 -13 0 -17 -38 -334
        -45 -369 -4 -27 -3 -28 40 -28 38 0 45 3 49 23 5 23 46 359 46 377 0 5 22 10
        49 10 42 0 49 3 55 23 15 58 18 57 -133 57 -135 0 -139 -1 -145 -22z"/>
                <path d="M4486 818 c-8 -42 -56 -431 -56 -446 0 -7 17 -12 45 -12 30 0 45 4
        45 13 0 46 32 242 41 253 15 19 45 18 53 -2 3 -9 -1 -70 -9 -137 -8 -67 -15
        -123 -15 -124 0 -2 20 -3 44 -3 50 0 46 -13 67 183 12 104 11 117 -4 141 -23
        35 -61 43 -104 22 l-35 -17 7 58 c12 106 14 98 -32 101 -40 3 -42 2 -47 -30z"/>
                <path d="M848 674 l-3 -167 -141 -82 -142 -81 54 -28 54 -28 145 82 145 82 -2
        165 -3 166 -52 29 -53 30 -2 -168z"/>
                <path d="M233 698 l-143 -81 0 -162 0 -162 51 -32 c28 -17 52 -31 54 -31 3 0
        6 75 7 166 l3 166 65 38 c36 20 99 57 141 81 l77 44 -49 28 c-27 15 -52 27
        -57 27 -4 0 -71 -37 -149 -82z"/>
                <path d="M1891 702 c-52 -26 -70 -58 -82 -148 -16 -122 -11 -154 30 -181 61
        -41 153 -22 191 39 11 18 20 36 20 39 0 4 -19 9 -42 12 -35 5 -45 2 -56 -14
        -8 -12 -23 -19 -35 -17 -18 2 -22 10 -22 38 l0 35 82 3 81 3 7 65 c9 80 -3
        110 -50 130 -46 19 -83 18 -124 -4z m77 -74 c7 -7 12 -22 12 -35 0 -20 -5 -23
        -40 -23 -44 0 -50 11 -24 48 17 25 34 28 52 10z"/>
                <path d="M2335 706 c-60 -26 -76 -65 -90 -212 -8 -81 0 -106 45 -129 71 -37
        173 1 194 71 6 19 2 22 -31 27 -28 3 -43 -1 -59 -14 -11 -11 -25 -19 -31 -19
        -20 0 -35 29 -29 55 6 24 9 25 85 25 l79 0 6 31 c9 48 7 108 -5 131 -22 42
        -107 59 -164 34z m83 -103 c3 -32 2 -33 -36 -33 -37 0 -40 2 -35 23 9 33 24
        48 47 45 16 -2 22 -11 24 -35z"/>
                <path d="M2838 704 c-16 -8 -28 -10 -28 -4 0 5 -20 10 -45 10 -25 0 -45 -3
        -45 -6 0 -13 -50 -421 -55 -451 l-6 -33 45 0 c44 0 44 0 50 40 20 135 15 123
        42 106 35 -23 70 -19 104 12 27 24 33 38 45 117 22 133 20 171 -10 200 -27 28
        -57 31 -97 9z m27 -86 c8 -31 -11 -156 -26 -174 -16 -20 -47 -17 -54 4 -7 25
        13 162 26 179 18 21 48 16 54 -9z"/>
                <path d="M3645 706 c-53 -23 -66 -48 -82 -153 -18 -123 -12 -158 30 -183 71
        -43 179 -8 201 66 6 19 2 22 -31 27 -28 3 -43 -1 -59 -14 -11 -11 -25 -19 -31
        -19 -20 0 -35 29 -29 55 6 24 9 25 85 25 l79 0 6 31 c9 48 7 108 -5 131 -22
        42 -107 59 -164 34z m83 -103 c3 -32 2 -33 -36 -33 -37 0 -40 2 -35 23 9 33
        24 48 47 45 16 -2 22 -11 24 -35z"/>
                <path d="M4082 704 c-50 -25 -62 -52 -78 -165 -13 -90 -13 -104 2 -134 24 -52
        99 -70 169 -41 36 15 60 45 70 89 7 26 6 27 -37 27 -38 0 -46 -4 -56 -26 -9
        -18 -19 -24 -35 -22 -21 3 -22 7 -20 84 0 45 6 92 13 104 15 29 54 24 58 -8 3
        -21 8 -23 50 -20 46 3 47 3 45 37 -2 49 -37 80 -98 87 -36 3 -60 0 -83 -12z"/>
                <path d="M288 562 l-48 -27 0 -166 0 -166 118 -68 c64 -38 129 -75 143 -83 24
        -13 29 -12 78 15 l52 30 -135 77 c-74 43 -139 83 -145 90 -6 7 -12 80 -13 169
        l-3 156 -47 -27z"/>
                <path d="M380 348 l0 -63 144 -82 144 -82 146 82 146 82 0 62 0 62 -101 -59
        c-55 -33 -103 -60 -105 -60 -2 0 -23 -11 -45 -25 l-40 -26 -117 67 c-64 37
        -129 76 -144 86 l-28 19 0 -63z"/>
            </g>
        </symbol>
        <symbol id="signed_deep" viewBox="0 0 105.000000 112.000000" preserveAspectRatio="xMidYMid meet">
            <g transform="translate(0.000000,112.000000) scale(0.100000,-0.100000)"
               fill="#ffffff" stroke="none">
                <path d="M469 1002 l-47 -27 144 -84 144 -83 0 -164 0 -165 50 28 50 28 -2
      168 -3 169 -135 79 c-74 43 -139 78 -145 78 -5 0 -31 -12 -56 -27z"/>
                <path d="M233 867 l-142 -82 -1 -64 c0 -49 3 -61 13 -54 6 6 72 45 146 87
      l133 77 139 -81 c77 -44 141 -80 144 -80 3 0 5 26 5 58 l0 57 -144 83 c-78 45
      -145 82 -147 81 -2 0 -68 -38 -146 -82z"/>
                <path d="M848 674 l-3 -167 -141 -82 -142 -81 54 -28 54 -28 145 82 145 82 -2
      165 -3 166 -52 29 -53 30 -2 -168z"/>
                <path d="M233 698 l-143 -81 0 -162 0 -162 51 -32 c28 -17 52 -31 54 -31 3 0
      6 75 7 166 l3 166 65 38 c36 20 99 57 141 81 l77 44 -49 28 c-27 15 -52 27
      -57 27 -4 0 -71 -37 -149 -82z"/>
                <path d="M288 562 l-48 -27 0 -166 0 -166 118 -68 c64 -38 129 -75 143 -83 24
      -13 29 -12 78 15 l52 30 -135 77 c-74 43 -139 83 -145 90 -6 7 -12 80 -13 169
      l-3 156 -47 -27z"/>
                <path d="M380 348 l0 -63 144 -82 144 -82 146 82 146 82 0 62 0 62 -101 -59
      c-55 -33 -103 -60 -105 -60 -2 0 -23 -11 -45 -25 l-40 -26 -117 67 c-64 37
      -129 76 -144 86 l-28 19 0 -63z"/>
            </g>
        </symbol>
        <symbol id="signed_muse" viewBox="0 0 63 41" preserveAspectRatio="xMidYMid meet">
            <path d="M3.77516 29.4651H23.1881L45.2973 40.358H59.3178V36.3614H45.2973L25.3451 26.1973H1.61816C1.8832 27.3114 2.87622 28.6801 3.77516 29.4651Z"
                  fill="white"/>
            <path d="M45.6063 0.599956L44.5801 0.112563C41.1892 0.101788 37.9759 0.0368593 35.0105 0H24.2655C19.9515 0 15.2625 1.08928 13.1055 2.79564H41.4944L45.2961 4.2598L56.4917 4.21727L55.1989 0.599956H45.6063Z"
                  fill="white"/>
            <path d="M5.39258 31.6436C15.2837 41.443 31.4063 40.3757 42.0076 40.3579C32.4028 39.4634 27.7489 37.8822 21.0038 32.5968C14.5491 34.1278 8.06625 32.1836 5.39258 31.6436Z"
                  fill="white"/>
            <path d="M37.8973 8.00231L45.297 11.3055H59.3175L57.8341 7.57956H45.2974L39.8263 5.17407H9.16732C7.54957 5.85907 6.47108 6.94835 5.39258 8.00231H37.8973Z"
                  fill="white"/>
            <path fill-rule="evenodd" clip-rule="evenodd"
                  d="M18.8193 18.3841H30.7772L45.2966 25.6947H59.317V21.8872H45.2966L32.723 15.5222H21.0118L18.8193 18.3841ZM11.5517 15.5222C11.2904 16.3557 11.1186 17.2999 11.0434 18.3841H0C0 17.6258 0 16.5365 0.539249 15.5222H11.5517Z"
                  fill="white"/>
            <path fill-rule="evenodd" clip-rule="evenodd"
                  d="M22.9161 12.456H34.3235L45.2973 17.7697L62.5533 17.7884L60.8092 13.9513H45.2978L36.2846 9.6001H22.161H3.23626C2.69701 9.89954 1.61816 11.5335 1.61816 12.456H13.1924C13.8318 11.7144 14.5998 11.0863 15.4813 10.5072C16.8744 9.78019 19.045 9.6001 22.161 9.6001C23.0322 9.6001 23.9773 9.61417 25 9.63431L22.9161 12.456Z"
                  fill="white"/>
            <path fill-rule="evenodd" clip-rule="evenodd"
                  d="M16.8426 20.911L15.1532 23.1161H5.16663C1.17199 12.1873 9.6606 7.17827 17.6499 6.7229H27.7119L25.4884 9.62528C20.7613 9.54561 17.6454 9.60895 15.8012 10.5072C12.5408 12.5065 10.7296 15.0889 11.0323 20.911H16.8426Z"
                  fill="white"/>
            <path d="M59.3176 29.1384H45.2973L29.1408 20.751H0.0556641C0.055723 21.4657 0.252898 22.6676 0.792038 23.7569H27.0713L45.2973 32.946H59.3176V29.1384Z"
                  fill="white"/>
        </symbol>
        <symbol id="full_muse" viewBox="0 0 116 17" preserveAspectRatio="xMidYMid meet">
            <path d="M1.21483 9.48122H7.46155L14.5759 12.9863H19.0874V11.7003H14.5759L8.15563 8.42969H0.520752C0.606037 8.78818 0.925569 9.22861 1.21483 9.48122Z"
                  fill="white"/>
            <path d="M14.6752 0.193054L14.345 0.0362205C13.2538 0.0327535 12.2199 0.0118606 11.2657 0H7.80812C6.41996 0 4.91112 0.350511 4.21704 0.899581H13.352L14.5754 1.37072L18.1779 1.35704L17.7619 0.193054H14.6752Z"
                  fill="white"/>
            <path d="M1.73535 10.1824C4.91812 13.3356 10.1061 12.9922 13.5173 12.9865C10.4267 12.6987 8.9292 12.1899 6.75874 10.4891C4.68176 10.9817 2.59569 10.3562 1.73535 10.1824Z"
                  fill="white"/>
            <path d="M12.1947 2.57487L14.5758 3.63776H19.0873L18.61 2.43884H14.576L12.8155 1.66479H2.94999C2.42943 1.88521 2.08239 2.23572 1.73535 2.57487H12.1947Z"
                  fill="white"/>
            <path fill-rule="evenodd" clip-rule="evenodd"
                  d="M6.05566 5.91578H9.90349L14.5756 8.26819H19.0871V7.04299H14.5756L10.5296 4.99487H6.76116L6.05566 5.91578ZM3.71705 4.99487C3.63298 5.26308 3.57771 5.5669 3.55352 5.91578H0C0 5.67176 0 5.32125 0.17352 4.99487H3.71705Z"
                  fill="white"/>
            <path fill-rule="evenodd" clip-rule="evenodd"
                  d="M1.04142 3.08911H11.6757L14.576 4.48925H19.5673L20.1285 5.72393L14.5759 5.71794L11.0447 4.00807H7.3739L8.04438 3.1002C6.53822 3.07055 5.55497 3.08174 4.98136 3.38107C4.69775 3.56741 4.45066 3.76949 4.24492 4.00807H0.520752C0.520752 3.71123 0.867905 3.18547 1.04142 3.08911Z"
                  fill="white"/>
            <path fill-rule="evenodd" clip-rule="evenodd"
                  d="M5.41992 6.72886L4.8764 7.43833H1.6629C0.377505 3.92166 3.10897 2.30986 5.67977 2.16333H8.91754L8.202 3.09734C6.68092 3.07171 5.6783 3.09209 5.08487 3.38111C4.03574 4.02448 3.45295 4.85544 3.55033 6.72886H5.41992Z"
                  fill="white"/>
            <path d="M19.0874 9.37617H14.5759L9.37709 6.67725H0.0180664C0.0180854 6.90722 0.0815326 7.29398 0.255017 7.64449H8.71117L14.5759 10.6014H19.0874V9.37617Z"
                  fill="white"/>
            <path d="M23.232 1.832H27.44C28.176 1.832 28.848 1.94933 29.456 2.184C30.064 2.41867 30.5813 2.77067 31.008 3.24C31.4347 3.69867 31.7653 4.28 32 4.984C32.2347 5.67733 32.352 6.488 32.352 7.416C32.352 8.344 32.2347 9.16 32 9.864C31.7653 10.5573 31.4347 11.1387 31.008 11.608C30.5813 12.0667 30.064 12.4133 29.456 12.648C28.848 12.8827 28.176 13 27.44 13H23.232V1.832ZM27.44 10.84C28.1653 10.84 28.736 10.6373 29.152 10.232C29.568 9.82667 29.776 9.176 29.776 8.28V6.552C29.776 5.656 29.568 5.00533 29.152 4.6C28.736 4.19467 28.1653 3.992 27.44 3.992H25.664V10.84H27.44ZM35.4443 3.704C34.9643 3.704 34.6123 3.59733 34.3883 3.384C34.1749 3.16 34.0683 2.87733 34.0683 2.536V2.184C34.0683 1.84267 34.1749 1.56533 34.3883 1.352C34.6123 1.128 34.9643 1.016 35.4443 1.016C35.9243 1.016 36.2709 1.128 36.4843 1.352C36.7083 1.56533 36.8203 1.84267 36.8203 2.184V2.536C36.8203 2.87733 36.7083 3.16 36.4843 3.384C36.2709 3.59733 35.9243 3.704 35.4443 3.704ZM34.2603 4.6H36.6283V13H34.2603V4.6ZM46.6144 13.608C46.6144 14.056 46.5344 14.4507 46.3744 14.792C46.225 15.1333 45.9744 15.4213 45.6224 15.656C45.2704 15.9013 44.801 16.0827 44.2144 16.2C43.6384 16.328 42.9237 16.392 42.0704 16.392C41.345 16.392 40.7264 16.344 40.2144 16.248C39.713 16.1627 39.3024 16.0347 38.9824 15.864C38.673 15.704 38.4437 15.5013 38.2944 15.256C38.1557 15.0213 38.0864 14.7493 38.0864 14.44C38.0864 13.9707 38.225 13.6027 38.5024 13.336C38.7797 13.0693 39.1637 12.904 39.6544 12.84V12.664C39.249 12.5893 38.945 12.4187 38.7424 12.152C38.5397 11.8747 38.4384 11.5547 38.4384 11.192C38.4384 10.968 38.481 10.776 38.5664 10.616C38.6624 10.4453 38.7797 10.3013 38.9184 10.184C39.0677 10.056 39.2384 9.95467 39.4304 9.88C39.6224 9.80533 39.8144 9.74667 40.0064 9.704V9.64C39.4944 9.40533 39.1157 9.08533 38.8704 8.68C38.625 8.264 38.5024 7.784 38.5024 7.24C38.5024 6.38667 38.7957 5.704 39.3824 5.192C39.9797 4.66933 40.8864 4.408 42.1024 4.408C42.657 4.408 43.1317 4.46133 43.5264 4.568V4.248C43.5264 3.8 43.633 3.48 43.8464 3.288C44.0704 3.08533 44.385 2.984 44.7904 2.984H46.1184V4.744H44.2624V4.84C44.753 5.07467 45.1157 5.4 45.3504 5.816C45.585 6.22133 45.7024 6.696 45.7024 7.24C45.7024 8.08267 45.4037 8.76 44.8064 9.272C44.2197 9.77333 43.3184 10.024 42.1024 10.024C41.5584 10.024 41.0624 9.96533 40.6144 9.848C40.369 10.008 40.2464 10.232 40.2464 10.52C40.2464 10.7227 40.321 10.8827 40.4704 11C40.6304 11.1067 40.8917 11.16 41.2544 11.16H43.6864C44.7104 11.16 45.4517 11.3733 45.9104 11.8C46.3797 12.2267 46.6144 12.8293 46.6144 13.608ZM44.3904 13.928C44.3904 13.6827 44.2944 13.496 44.1024 13.368C43.9104 13.24 43.5744 13.176 43.0944 13.176H40.2144C40.1077 13.2827 40.0277 13.4 39.9744 13.528C39.9317 13.6667 39.9104 13.8 39.9104 13.928C39.9104 14.2373 40.0437 14.4613 40.3104 14.6C40.577 14.7493 41.0304 14.824 41.6704 14.824H42.6304C43.2704 14.824 43.7237 14.7493 43.9904 14.6C44.257 14.4613 44.3904 14.2373 44.3904 13.928ZM42.1024 8.472C42.5717 8.472 42.9184 8.376 43.1424 8.184C43.377 7.98133 43.4944 7.69333 43.4944 7.32V7.128C43.4944 6.75467 43.377 6.472 43.1424 6.28C42.9184 6.07733 42.5717 5.976 42.1024 5.976C41.633 5.976 41.281 6.07733 41.0464 6.28C40.8224 6.472 40.7104 6.75467 40.7104 7.128V7.32C40.7104 7.69333 40.8224 7.98133 41.0464 8.184C41.281 8.376 41.633 8.472 42.1024 8.472ZM48.8505 3.704C48.3705 3.704 48.0185 3.59733 47.7945 3.384C47.5812 3.16 47.4745 2.87733 47.4745 2.536V2.184C47.4745 1.84267 47.5812 1.56533 47.7945 1.352C48.0185 1.128 48.3705 1.016 48.8505 1.016C49.3305 1.016 49.6772 1.128 49.8905 1.352C50.1145 1.56533 50.2265 1.84267 50.2265 2.184V2.536C50.2265 2.87733 50.1145 3.16 49.8905 3.384C49.6772 3.59733 49.3305 3.704 48.8505 3.704ZM47.6665 4.6H50.0345V13H47.6665V4.6ZM55.1886 13C54.3673 13 53.7433 12.792 53.3166 12.376C52.9006 11.96 52.6926 11.352 52.6926 10.552V6.44H51.5086V4.6H52.1006C52.4206 4.6 52.6393 4.52533 52.7566 4.376C52.874 4.216 52.9326 3.992 52.9326 3.704V2.328H55.0606V4.6H56.7246V6.44H55.0606V11.16H56.5966V13H55.1886ZM64.5776 13C64.151 13 63.7936 12.8667 63.5056 12.6C63.2283 12.3333 63.0523 11.976 62.9776 11.528H62.8816C62.7536 12.072 62.471 12.488 62.0336 12.776C61.5963 13.0533 61.0576 13.192 60.4176 13.192C59.575 13.192 58.9296 12.968 58.4816 12.52C58.0336 12.072 57.8096 11.48 57.8096 10.744C57.8096 9.85867 58.1296 9.20267 58.7696 8.776C59.4203 8.33867 60.3003 8.12 61.4096 8.12H62.7376V7.592C62.7376 7.18667 62.631 6.86667 62.4176 6.632C62.2043 6.38667 61.847 6.264 61.3456 6.264C60.8763 6.264 60.503 6.36533 60.2256 6.568C59.9483 6.77067 59.719 7 59.5376 7.256L58.1296 6.008C58.471 5.50667 58.8976 5.11733 59.4096 4.84C59.9323 4.552 60.6363 4.408 61.5216 4.408C62.7163 4.408 63.6123 4.66933 64.2096 5.192C64.807 5.71467 65.1056 6.47733 65.1056 7.48V11.16H65.8896V13H64.5776ZM61.2976 11.544C61.6923 11.544 62.0283 11.4587 62.3056 11.288C62.5936 11.1173 62.7376 10.84 62.7376 10.456V9.464H61.5856C60.6576 9.464 60.1936 9.77867 60.1936 10.408V10.648C60.1936 10.9573 60.2896 11.1867 60.4816 11.336C60.6736 11.4747 60.9456 11.544 61.2976 11.544ZM69.831 13C69.0203 13 68.423 12.8027 68.039 12.408C67.6657 12.0133 67.479 11.4427 67.479 10.696V1.16H69.847V11.16H70.903V13H69.831ZM84.584 5.672H84.536L83.72 7.304L81.544 11.256L79.416 7.32L78.568 5.56H78.52V13H76.232V1.832H78.808L81.544 7.064H81.576L84.28 1.832H86.872V13H84.584V5.672ZM94.1734 11.592H94.0934C94.0187 11.8053 93.9174 12.008 93.7894 12.2C93.672 12.392 93.5174 12.5627 93.3254 12.712C93.1334 12.8613 92.904 12.9787 92.6374 13.064C92.3814 13.1493 92.0827 13.192 91.7414 13.192C90.8774 13.192 90.2214 12.9093 89.7734 12.344C89.336 11.768 89.1174 10.9467 89.1174 9.88V4.6H91.4854V9.672C91.4854 10.184 91.576 10.5787 91.7574 10.856C91.9387 11.1333 92.248 11.272 92.6854 11.272C92.8667 11.272 93.048 11.2453 93.2294 11.192C93.4107 11.1387 93.5707 11.064 93.7094 10.968C93.848 10.8613 93.96 10.7333 94.0454 10.584C94.1307 10.4347 94.1734 10.2587 94.1734 10.056V4.6H96.5414V13H94.1734V11.592ZM101.593 13.192C100.782 13.192 100.099 13.064 99.5446 12.808C98.99 12.5413 98.494 12.168 98.0566 11.688L99.4486 10.28C99.7473 10.6107 100.078 10.872 100.441 11.064C100.803 11.256 101.214 11.352 101.673 11.352C102.142 11.352 102.467 11.2827 102.649 11.144C102.83 10.9947 102.921 10.7973 102.921 10.552C102.921 10.1573 102.638 9.92267 102.073 9.848L101.161 9.736C99.2726 9.50133 98.3286 8.63733 98.3286 7.144C98.3286 6.73867 98.4033 6.37067 98.5526 6.04C98.7126 5.69867 98.9313 5.41067 99.2086 5.176C99.4966 4.93067 99.838 4.744 100.233 4.616C100.638 4.47733 101.091 4.408 101.593 4.408C102.03 4.408 102.414 4.44 102.745 4.504C103.086 4.55733 103.385 4.64267 103.641 4.76C103.907 4.86667 104.147 5.00533 104.361 5.176C104.585 5.336 104.803 5.51733 105.017 5.72L103.657 7.112C103.39 6.84533 103.086 6.63733 102.745 6.488C102.414 6.328 102.073 6.248 101.721 6.248C101.315 6.248 101.027 6.312 100.857 6.44C100.686 6.568 100.601 6.73867 100.601 6.952C100.601 7.176 100.659 7.352 100.777 7.48C100.905 7.59733 101.139 7.68267 101.481 7.736L102.425 7.864C104.27 8.10933 105.193 8.952 105.193 10.392C105.193 10.7973 105.107 11.1707 104.937 11.512C104.766 11.8533 104.521 12.152 104.201 12.408C103.891 12.6533 103.513 12.8453 103.065 12.984C102.627 13.1227 102.137 13.192 101.593 13.192ZM110.311 13.192C109.671 13.192 109.1 13.0907 108.599 12.888C108.098 12.6747 107.671 12.3813 107.319 12.008C106.978 11.624 106.716 11.16 106.535 10.616C106.364 10.072 106.279 9.464 106.279 8.792C106.279 8.13067 106.364 7.53333 106.535 7C106.706 6.456 106.956 5.992 107.287 5.608C107.628 5.224 108.044 4.93067 108.535 4.728C109.026 4.51467 109.586 4.408 110.215 4.408C110.908 4.408 111.5 4.52533 111.991 4.76C112.492 4.99467 112.898 5.30933 113.207 5.704C113.527 6.09867 113.756 6.55733 113.895 7.08C114.044 7.592 114.119 8.13067 114.119 8.696V9.4H108.727V9.528C108.727 10.0827 108.876 10.5253 109.175 10.856C109.474 11.176 109.943 11.336 110.583 11.336C111.074 11.336 111.474 11.24 111.783 11.048C112.092 10.8453 112.38 10.6053 112.647 10.328L113.831 11.8C113.458 12.2373 112.967 12.5787 112.359 12.824C111.762 13.0693 111.079 13.192 110.311 13.192ZM110.263 6.152C109.783 6.152 109.404 6.312 109.127 6.632C108.86 6.94133 108.727 7.35733 108.727 7.88V8.008H111.671V7.864C111.671 7.352 111.554 6.94133 111.319 6.632C111.095 6.312 110.743 6.152 110.263 6.152Z"
                  fill="white"/>
        </symbol>


    </defs>
</svg>
