<svg version="1.0" xmlns="http://www.w3.org/2000/svg"
     width="512.000000pt" height="512.000000pt" viewBox="0 0 512.000000 512.000000"
     preserveAspectRatio="xMidYMid meet">

    <g transform="translate(0.000000,512.000000) scale(0.100000,-0.100000)"
       fill="#ffffff" stroke="none">
        <path d="M2425 4059 c-700 -39 -1510 -459 -2216 -1147 -180 -175 -204 -216
-204 -352 0 -136 24 -177 204 -352 358 -349 764 -644 1163 -844 604 -303 1180
-380 1754 -235 587 148 1226 534 1785 1079 180 175 204 216 204 352 0 136 -24
177 -204 352 -492 480 -1067 849 -1586 1021 -310 103 -597 143 -900 126z m289
-303 c135 -7 321 -45 485 -98 463 -150 914 -426 1385 -848 166 -149 236 -223
236 -250 0 -27 -70 -101 -236 -250 -600 -538 -1199 -856 -1760 -935 -123 -18
-381 -20 -496 -6 -457 59 -946 280 -1433 646 -284 213 -595 498 -595 545 0 47
312 332 595 545 435 327 875 540 1284 620 120 24 340 45 401 39 14 -2 74 -5
134 -8z"/>
        <path d="M2375 3443 c-276 -59 -521 -254 -636 -508 -59 -132 -74 -205 -74
-375 0 -131 4 -167 23 -233 116 -402 462 -667 872 -667 433 0 799 301 885 729
23 112 16 304 -15 411 -94 329 -359 576 -692 644 -96 20 -269 20 -363 -1z
m353 -306 c186 -54 340 -201 404 -385 19 -56 23 -87 23 -192 0 -105 -4 -136
-23 -192 -60 -173 -207 -320 -380 -380 -89 -31 -287 -33 -372 -4 -134 45 -268
152 -339 271 -107 177 -107 432 0 611 44 73 140 169 213 213 135 81 318 103
474 58z"/>
    </g>
</svg>
